HIERARCHY
ROOT Hips
{
  OFFSET -4.35178 90.3298 111.633
  CHANNELS 6 Xposition Yposition Zposition Zrotation Xrotation Yrotation
  JOINT LeftUpLeg
  {
    OFFSET 0.103456 1.85784 10.5485
    CHANNELS 6 Xposition Yposition Zposition Zrotation Xrotation Yrotation
    JOINT LeftLeg
    {
      OFFSET 43.5 -4.2e-05 0
      CHANNELS 6 Xposition Yposition Zposition Zrotation Xrotation Yrotation
      JOINT LeftFoot
      {
        OFFSET 42.3722 1.9e-05 0
        CHANNELS 6 Xposition Yposition Zposition Zrotation Xrotation Yrotation
        JOINT LeftToe
        {
          OFFSET 17.3 0 0
          CHANNELS 6 Xposition Yposition Zposition Zrotation Xrotation Yrotation
          End Site
          {
            OFFSET 0 0 0
          }
        }
      }
    }
  }
  JOINT RightUpLeg
  {
    OFFSET 0.103456 1.85782 -10.5485
    CHANNELS 6 Xposition Yposition Zposition Zrotation Xrotation Yrotation
    JOINT RightLeg
    {
      OFFSET 43.5 -2.7e-05 0
      CHANNELS 6 Xposition Yposition Zposition Zrotation Xrotation Yrotation
      JOINT RightFoot
      {
        OFFSET 42.3723 0 0
        CHANNELS 6 Xposition Yposition Zposition Zrotation Xrotation Yrotation
        JOINT RightToe
        {
          OFFSET 17.3 0 1.7e-05
          CHANNELS 6 Xposition Yposition Zposition Zrotation Xrotation Yrotation
          End Site
          {
            OFFSET 0 0 0
          }
        }
      }
    }
  }
  JOINT Spine
  {
    OFFSET 6.90197 -2.60373 0
    CHANNELS 6 Xposition Yposition Zposition Zrotation Xrotation Yrotation
    JOINT Spine1
    {
      OFFSET 12.5881 0 0
      CHANNELS 6 Xposition Yposition Zposition Zrotation Xrotation Yrotation
      JOINT Spine2
      {
        OFFSET 12.3432 -1.8e-05 0
        CHANNELS 6 Xposition Yposition Zposition Zrotation Xrotation Yrotation
        JOINT Neck
        {
          OFFSET 25.8329 2.3e-05 0
          CHANNELS 6 Xposition Yposition Zposition Zrotation Xrotation Yrotation
          JOINT Head
          {
            OFFSET 11.7666 0 0
            CHANNELS 6 Xposition Yposition Zposition Zrotation Xrotation Yrotation
            End Site
            {
              OFFSET 0 0 0
            }
          }
        }
        JOINT LeftShoulder
        {
          OFFSET 19.7459 -1.48035 6.0001
          CHANNELS 6 Xposition Yposition Zposition Zrotation Xrotation Yrotation
          JOINT LeftArm
          {
            OFFSET 11.2841 1.8e-05 -2e-05
            CHANNELS 6 Xposition Yposition Zposition Zrotation Xrotation Yrotation
            JOINT LeftForeArm
            {
              OFFSET 33 -1.3e-05 1.9e-05
              CHANNELS 6 Xposition Yposition Zposition Zrotation Xrotation Yrotation
              JOINT LeftHand
              {
                OFFSET 25.2 3.2e-05 1.1e-05
                CHANNELS 6 Xposition Yposition Zposition Zrotation Xrotation Yrotation
                End Site
                {
                  OFFSET 0 0 0
                }
              }
            }
          }
        }
        JOINT RightShoulder
        {
          OFFSET 19.7461 -1.48036 -6.00008
          CHANNELS 6 Xposition Yposition Zposition Zrotation Xrotation Yrotation
          JOINT RightArm
          {
            OFFSET 11.2841 0 0
            CHANNELS 6 Xposition Yposition Zposition Zrotation Xrotation Yrotation
            JOINT RightForeArm
            {
              OFFSET 33.0001 1.6e-05 0
              CHANNELS 6 Xposition Yposition Zposition Zrotation Xrotation Yrotation
              JOINT RightHand
              {
                OFFSET 25.1998 0.000123 0.000432
                CHANNELS 6 Xposition Yposition Zposition Zrotation Xrotation Yrotation
                End Site
                {
                  OFFSET 0 0 0
                }
              }
            }
          }
        }
      }
    }
  }
}
MOTION
Frames:	7
Frame Time:	0.0333333
2.78384 88.0752 164.514 88.1427 -5.69909 2.31238 0.103456 1.85784 10.5485 7.93126 16.1089 -172.988 43.5 -4.2e-05 1e-05 -37.7125 -9.98492 -5.70741 42.3722 1.9e-05 0 75.5252 -0.462942 4.22201 17.3 3.55271e-15 3e-06 21.4546 -1e-06 0.003093 0.103456 1.85782 -10.5485 -29.512 -7.69941 -175.987 43.5 -2.7e-05 4e-06 -52.5137 7.62473 1.24482 42.3723 0 1e-05 76.9814 7.20213 -6.64227 17.3 -6e-06 1.7e-05 21.4546 -1.9e-05 -0.003116 6.90197 -2.60373 -3e-06 9.9473 -0.701771 -0.873543 12.5881 1e-05 8e-06 9.89098 -1.43948 -1.57929 12.3432 -1.8e-05 -5e-06 9.59918 -1.38706 -1.47106 25.8329 2.3e-05 7e-06 4.63744 -0.982148 -1.87889 11.7666 -8e-06 -6e-06 -21.1847 -14.308 16.3689 19.7459 -1.48035 6.0001 -177.792 -5.25561 -91.5779 11.2841 1.8e-05 -2e-05 -9.73349 -16.3041 65.7302 33 -1.3e-05 1.9e-05 -107.105 -14.5564 -4.92333 25.2 3.2e-05 1.1e-05 -34.0846 25.1646 1.71265 19.7461 -1.48036 -6.00008 -168.965 0.869358 75.4398 11.2841 0 -1e-06 -22.9976 -22.8647 -45.0608 33.0001 1.6e-05 -1e-06 -119.99 -1.04261 30.7818 25.1998 0.000123 0.000432 -5.21727 -23.04 16.9102 
-2.82935 89.656 164.404 88.3774 -8.89845 1.98013 0.103456 1.85784 10.5485 10.5966 16.7422 -172.742 43.5 -4.2e-05 1e-05 -37.2211 -9.67693 -6.5838 42.3722 1.9e-05 0 64.3172 1.58839 3.15974 17.3 7.10543e-15 3e-06 21.4546 -1e-06 0.003093 0.103456 1.85782 -10.5485 -24.7748 -9.2866 -173.987 43.5 -2.7e-05 4e-06 -35.0945 7.36134 3.93193 42.3723 0 1e-05 71.4464 6.78519 -5.38969 17.3 -6e-06 1.7e-05 21.4546 -1.9e-05 -0.003116 6.90197 -2.60373 -3e-06 9.62274 -0.719288 -0.813898 12.5881 1e-05 8e-06 9.2426 -1.4667 -1.46213 12.3432 -1.8e-05 -5e-06 8.95108 -1.41683 -1.35266 25.8329 2.3e-05 7e-06 4.30473 -0.689068 -2.07086 11.7666 -8e-06 -6e-06 -20.4931 -13.9749 16.4858 19.7459 -1.48035 6.0001 -177.358 -5.43249 -91.7995 11.2841 1.8e-05 -2e-05 -11.8531 -13.9881 64.9133 33 -1.3e-05 1.9e-05 -108.304 -15.322 -5.07108 25.2 3.2e-05 1.1e-05 -34.5628 25.9325 1.46095 19.7461 -1.48036 -6.00008 -168.175 1.45808 75.4813 11.2841 1.42109e-14 -1e-06 -23.3219 -26.1133 -46.071 33.0001 1.6e-05 -1e-06 -120.818 -0.85391 31.7607 25.1998 0.000123 0.000432 -5.66329 -23.328 16.719 
-8.60768 90.6283 164.126 87.8177 -11.8013 1.66957 0.103456 1.85784 10.5485 10.4731 17.6636 -170.632 43.5 -4.2e-05 1e-05 -42.1542 -8.6527 -7.80526 42.3722 1.9e-05 0 54.1764 6.33959 1.14893 17.3 0 3e-06 21.4546 -1e-06 0.003093 0.103456 1.85782 -10.5485 -17.5153 -11.4078 -171.33 43.5 -2.7e-05 4e-06 -20.024 8.17316 5.71936 42.3723 0 1e-05 63.8484 5.83432 -4.19218 17.3 -6e-06 1.7e-05 21.4546 -1.9e-05 -0.003116 6.90197 -2.60373 -3e-06 9.42852 -0.71403 -0.811391 12.5881 1e-05 8e-06 8.85411 -1.45789 -1.46103 12.3432 -1.8e-05 -5e-06 8.56246 -1.41383 -1.3523 25.8329 2.3e-05 7e-06 3.76497 -0.401258 -2.29128 11.7666 -8e-06 -6e-06 -19.1954 -13.7974 16.9708 19.7459 -1.48035 6.0001 -177.251 -5.88742 -92.1315 11.2841 1.8e-05 -2e-05 -14.185 -11.6648 64.0095 33 -1.3e-05 1.9e-05 -108.3 -14.2626 -5.1882 25.2 3.2e-05 1.1e-05 -35.3419 27.7754 1.03623 19.7461 -1.48036 -6.00008 -166.806 1.3909 74.8343 11.2841 0 -1e-06 -22.4267 -27.227 -47.089 33.0001 1.6e-05 -1e-06 -121.728 -0.919994 32.3578 25.1998 0.000123 0.000432 -4.90821 -22.5312 15.7841 
-14.3578 90.5268 163.848 86.2821 -14.7028 1.28197 0.103456 1.85784 10.5485 8.88147 17.9671 -167.985 43.5 -4.2e-05 1e-05 -50.5098 -7.99001 -8.27655 42.3722 1.9e-05 0 47.7367 15.6341 -0.597001 17.3 0 3e-06 21.4546 -1e-06 0.003093 0.103456 1.85782 -10.5485 -11.1592 -13.9733 -169.457 43.5 -2.7e-05 4e-06 -14.6258 9.74431 7.5426 42.3723 0 1e-05 60.8622 4.95012 -4.14245 17.3 -6e-06 1.7e-05 21.4546 -1.9e-05 -0.003116 6.90197 -2.60373 -3e-06 9.51806 -0.657671 -0.805296 12.5881 1e-05 8e-06 9.03252 -1.34359 -1.45768 12.3432 -1.8e-05 -5e-06 8.73895 -1.29687 -1.356 25.8329 2.3e-05 7e-06 3.12885 -0.459722 -2.40665 11.7666 -8e-06 -6e-06 -18.451 -13.991 17.3066 19.7459 -1.48035 6.0001 -177.608 -6.50641 -92.6153 11.2841 1.8e-05 -2e-05 -16.2206 -9.83895 63.2941 33 -1.3e-05 1.9e-05 -107.338 -13.3533 -5.51512 25.2 3.2e-05 1.1e-05 -36.0312 28.8137 1.09874 19.7461 -1.48036 -6.00008 -164.844 0.600424 73.9081 11.2841 -1.42109e-14 -1e-06 -20.2641 -25.8368 -47.6783 33.0001 1.6e-05 -1e-06 -122.874 -1.10695 32.6112 25.1998 0.000123 0.000432 -2.90755 -21.0512 14.4772 
-19.9269 89.3298 163.799 83.9268 -17.8242 0.75336 0.103456 1.85784 10.5485 7.3943 17.8033 -165.934 43.5 -4.2e-05 1e-05 -59.8392 -8.18529 -7.74176 42.3722 1.9e-05 0 47.2443 26.4701 -3.24154 17.3 -7.10543e-15 3e-06 21.4546 -1e-06 0.003093 0.103456 1.85782 -10.5485 -8.27082 -17.2879 -168.802 43.5 -2.7e-05 4e-06 -22.1395 11.5373 7.69823 42.3723 -1.42109e-14 1e-05 66.5258 -3.0934 -6.93415 17.3 -6e-06 1.7e-05 21.4546 -1.9e-05 -0.003116 6.90197 -2.60373 -3e-06 9.80774 -0.596623 -0.747018 12.5881 1e-05 8e-06 9.61149 -1.20818 -1.34891 12.3432 -1.8e-05 -5e-06 9.31538 -1.14624 -1.25562 25.8329 2.3e-05 7e-06 2.58347 -0.965276 -2.32179 11.7666 -8e-06 -6e-06 -17.9867 -14.4409 17.152 19.7459 -1.48035 6.0001 -178.016 -7.13207 -92.8045 11.2841 1.8e-05 -2e-05 -17.1213 -8.73721 62.9741 33 -1.3e-05 1.9e-05 -105.738 -13.5759 -6.05473 25.2 3.2e-05 1.1e-05 -35.7605 28.8971 1.46631 19.7461 -1.48036 -6.00008 -163.163 -0.382618 73.1983 11.2841 0 -1e-06 -17.8132 -23.0276 -47.3293 33.0001 1.6e-05 -1e-06 -123.855 -1.87722 32.1796 25.1998 0.000123 0.000432 -1.78522 -19.9431 13.6691 
-25.2569 87.4191 163.649 81.8587 -20.8589 0.181317 0.103456 1.85784 10.5485 5.61196 16.5097 -163.822 43.5 -4.2e-05 1e-05 -69.4803 -8.6994 -7.66239 42.3722 1.9e-05 0 54.7866 28.6752 -6.71524 17.3 7.10543e-15 3e-06 21.4546 -1e-06 0.003093 0.103456 1.85782 -10.5485 -7.49098 -16.5746 -169.276 43.5 -2.7e-05 4e-06 -31.5997 12.6291 7.35132 42.3723 -1.42109e-14 1e-05 76.0601 -6.04116 -6.63012 17.3 -6e-06 1.7e-05 21.4546 -1.9e-05 -0.003116 6.90197 -2.60373 -3e-06 9.98651 -0.552745 -0.590845 12.5881 1e-05 8e-06 9.96935 -1.08948 -1.04399 12.3432 -1.8e-05 -5e-06 9.67048 -1.0034 -0.958605 25.8329 2.3e-05 7e-06 2.28562 -1.90475 -1.94132 11.7666 -8e-06 -6e-06 -17.1741 -14.9318 16.246 19.7459 -1.48035 6.0001 -178.46 -7.93614 -92.4819 11.2841 1.8e-05 -2e-05 -17.4469 -7.97006 62.7451 33 -1.3e-05 1.9e-05 -103.136 -14.5223 -6.62108 25.2 3.2e-05 1.1e-05 -35.1 28.7541 1.81894 19.7461 -1.48036 -6.00008 -162.282 -1.44587 72.3952 11.2841 2.84217e-14 -1e-06 -15.7091 -19.8795 -45.8214 33.0001 1.6e-05 -1e-06 -124.497 -3.23405 30.9884 25.1998 0.000123 0.000432 -1.85013 -19.9661 14.2229 
-30.0886 85.5462 163.259 80.4778 -23.4137 -0.384642 0.103456 1.85784 10.5485 1.88327 14.3597 -161.264 43.5 -4.2e-05 1e-05 -78.2316 -8.96614 -7.56116 42.3722 1.9e-05 2.84217e-14 59.0533 28.2819 -5.86143 17.3 -7.10543e-15 3e-06 21.4546 -1e-06 0.003093 0.103456 1.85782 -10.5485 -7.86385 -14.5523 -168.913 43.5 -2.7e-05 4e-06 -40.1102 13.8491 4.99223 42.3723 1.42109e-14 1e-05 83.3823 -4.65213 -5.66416 17.3 -6e-06 1.7e-05 21.4546 -1.9e-05 -0.003116 6.90197 -2.60373 -3e-06 10.0265 -0.544477 -0.26267 12.5881 1e-05 8e-06 10.0507 -1.01055 -0.391889 12.3432 -1.8e-05 -5e-06 9.74851 -0.883097 -0.31267 25.8329 2.3e-05 7e-06 2.71947 -3.36234 -1.32011 11.7666 -8e-06 -6e-06 -17.2934 -15.4907 14.5151 19.7459 -1.48035 6.0001 -178.881 -8.76025 -91.3797 11.2841 1.8e-05 -2e-05 -16.9915 -7.74682 62.9531 33 -1.3e-05 1.9e-05 -99.289 -14.708 -6.76628 25.2 3.2e-05 1.1e-05 -34.9017 28.398 2.27868 19.7461 -1.48036 -6.00008 -162.644 -2.34086 71.9317 11.2841 0 -1e-06 -14.766 -16.1363 -43.9012 33.0001 1.6e-05 -1e-06 -124.189 -4.79358 28.9404 25.1998 0.000123 0.000432 -2.61454 -20.5712 15.6068 
